# xmcd CD database file
#
# Track frame offsets:
#	150
#	47319
#	73564
#	132226
#	155834
#	181789
#	214369
#	262374
#	282841
#
# Disc length: 4133 seconds
#
# Revision: 0
# Processed by: cddbd v1.5.2PL0 Copyright (c) Steve Scherf et al.
# Submitted via: CDex 2.12
#
DISCID=89102309
DTITLE=Miles Davis - Milestones
DYEAR=1958
DGENRE=Jazz
TTITLE0=Dr. Jackle
TTITLE1=Sid's Ahead
TTITLE2=Two Bass Hit
TTITLE3=Milestones
TTITLE4=Billy Boy
TTITLE5=Straight, No Chaser
TTITLE6=Two Bass Hit (Alternate Take)
TTITLE7=Milestones (Alternate Take)
TTITLE8=Straight, No Chaser (Alternate Take)
EXTD=YEAR: 1958
EXTT0=
EXTT1=
EXTT2=
EXTT3=
EXTT4=
EXTT5=
EXTT6=
EXTT7=
EXTT8=
PLAYORDER=
